<?xml version="1.0" encoding="UTF-8" standalone="no"?>
<svg
   width="169.64534mm"
   height="93.040421mm"
   viewBox="0 0 169.64534 93.040421"
   version="1.1"
   id="svg923"
   inkscape:export-filename="../../../../intento1.png"
   inkscape:export-xdpi="96"
   inkscape:export-ydpi="96"
   inkscape:version="1.2.1 (9c6d41e410, 2022-07-14, custom)"
   sodipodi:docname="intento1.svg"
   xmlns:inkscape="http://www.inkscape.org/namespaces/inkscape"
   xmlns:sodipodi="http://sodipodi.sourceforge.net/DTD/sodipodi-0.dtd"
   xmlns="http://www.w3.org/2000/svg"
   xmlns:svg="http://www.w3.org/2000/svg"
   xmlns:rdf="http://www.w3.org/1999/02/22-rdf-syntax-ns#"
   xmlns:cc="http://creativecommons.org/ns#"
   xmlns:dc="http://purl.org/dc/elements/1.1/">
  <defs
     id="defs917">
    <rect
       x="18.951031"
       y="222.1482"
       width="539.05155"
       height="113.70619"
       id="rect168" />
    <rect
       x="56.853093"
       y="229.51804"
       width="481.14562"
       height="141.0799"
       id="rect531" />
  </defs>
  <sodipodi:namedview
     id="base"
     pagecolor="#ffffff"
     bordercolor="#666666"
     borderopacity="1.0"
     inkscape:pageopacity="0.0"
     inkscape:pageshadow="2"
     inkscape:zoom="1.3432432"
     inkscape:cx="298.90342"
     inkscape:cy="179.4165"
     inkscape:document-units="mm"
     inkscape:current-layer="layer1"
     inkscape:document-rotation="0"
     showgrid="false"
     inkscape:window-width="1600"
     inkscape:window-height="822"
     inkscape:window-x="0"
     inkscape:window-y="42"
     inkscape:window-maximized="1"
     inkscape:showpageshadow="2"
     inkscape:pagecheckerboard="0"
     inkscape:deskcolor="#d1d1d1" />
  <metadata
     id="metadata920">
    <rdf:RDF>
      <cc:Work
         rdf:about="">
        <dc:format>image/svg+xml</dc:format>
        <dc:type
           rdf:resource="http://purl.org/dc/dcmitype/StillImage" />
      </cc:Work>
    </rdf:RDF>
  </metadata>
  <g
     inkscape:label="Capa 1"
     inkscape:groupmode="layer"
     id="layer1"
     transform="translate(-19.621725,-76.645009)">
    <path
       d="m 177.42721,149.09033 c 1.21709,-1.45521 4.23333,-4.97417 6.69396,-7.80521 2.48708,-2.83104 4.68312,-5.37104 4.89479,-5.60917 0.34396,-0.39687 0.26458,-0.52916 -0.87312,-1.19062 -5.74146,-3.36021 -10.98021,-8.70479 -15.05479,-15.29292 -2.2225,-3.62479 -1.98438,-3.41312 -4.28625,-3.94229 -5.10646,-1.19062 -10.08063,-3.4925 -13.99646,-6.42938 -2.06375,-1.56104 -2.48708,-2.01083 -3.22792,-3.51895 -1.56104,-3.14854 -5.10645,-14.79021 -5.10645,-16.721669 0,-0.555624 0.26458,-0.582083 -3.91584,0.423334 -2.83104,0.687916 -3.38666,0.978958 -6.00604,3.174999 -4.04812,3.413125 -6.21771,5.55625 -8.59895,8.493126 l -2.56646,3.20146 -2.61938,-0.21167 c -4.73604,-0.37042 -15.26645,-2.19604 -35.030827,-6.0325 -33.04645,-6.429374 -44.55582,-8.016874 -54.371865,-7.540624 -3.307291,0.15875 -13.652498,1.11125 -13.811248,1.27 -0.02646,0.05292 1.561042,0.238125 3.571875,0.396875 17.806456,1.534583 46.143328,6.561666 69.135618,12.250209 10.794997,2.67229 24.712077,6.69396 34.739787,10.08063 5.45041,1.82562 5.52979,1.85208 6.40291,1.42875 0.87313,-0.39688 0.89958,-0.4498 0.89958,-2.14313 0,-2.24896 0.42334,-6.29709 0.9525,-8.99584 0.87313,-4.392078 2.54,-8.546036 4.78896,-11.932702 1.00542,-1.534584 1.27,-1.693333 1.48167,-0.9525 1.74625,6.111874 3.51896,11.879792 3.99521,13.017502 0.71437,1.79916 6.37645,8.44021 8.28145,9.71021 0.71438,0.47625 3.22792,1.69333 5.63563,2.72521 5.37104,2.27541 6.61458,3.09562 8.94291,5.87374 2.98979,3.57188 5.715,6.00604 12.27667,10.90084 l 3.06916,2.30187 -1.74625,2.83104 c -2.48708,4.07458 -4.20687,7.03792 -5.34458,9.33979 -0.92604,1.82563 -1.13771,2.06375 -2.30187,2.56646 -0.79375,0.34396 -1.11125,0.60854 -0.87313,0.68792 0.21167,0.0529 0.58209,0.1852 0.79375,0.26458 0.74084,0.23812 0.97896,0.0265 3.175,-2.61937 z"
       id="path1545"
       style="fill:#f6bd2e;fill-opacity:1;stroke:none;stroke-width:0.3;stroke-linecap:round;stroke-linejoin:bevel;stroke-miterlimit:4;stroke-dasharray:none;stroke-opacity:1;paint-order:normal"
       sodipodi:nodetypes="ccccccccsccccccccccccsccscscccccccccc" />
    <text
       xml:space="preserve"
       transform="matrix(0.26458333,0,0,0.26458333,19.621725,76.645009)"
       id="text166"
       style="font-style:normal;font-variant:normal;font-weight:normal;font-stretch:normal;font-size:85.3333px;font-family:Chailce-Noggin;-inkscape-font-specification:Chailce-Noggin;white-space:pre;shape-inside:url(#rect168);display:inline;fill:#000000" />
    <text
       xml:space="preserve"
       style="font-style:normal;font-variant:normal;font-weight:normal;font-stretch:normal;font-size:45.8611px;font-family:Chailce-Noggin;-inkscape-font-specification:Chailce-Noggin;fill:#f6bd2e;fill-opacity:1;stroke-width:0.264583"
       x="23.40522"
       y="144.08174"
       id="text174"><tspan
         sodipodi:role="line"
         id="tspan172"
         style="font-size:45.8611px;fill:#f6bd2e;fill-opacity:1;stroke-width:0.264583"
         x="23.40522"
         y="144.08174">Vasak</tspan></text>
  </g>
</svg>
