<?xml version="1.0" encoding="UTF-8" standalone="no"?>
<svg
   width="169.64534mm"
   height="93.040421mm"
   viewBox="0 0 169.64534 93.040421"
   version="1.1"
   id="svg923"
   inkscape:export-filename="../../../../intento1.png"
   inkscape:export-xdpi="96"
   inkscape:export-ydpi="96"
   inkscape:version="1.2.1 (9c6d41e410, 2022-07-14, custom)"
   sodipodi:docname="logo.svg"
   xmlns:inkscape="http://www.inkscape.org/namespaces/inkscape"
   xmlns:sodipodi="http://sodipodi.sourceforge.net/DTD/sodipodi-0.dtd"
   xmlns="http://www.w3.org/2000/svg"
   xmlns:svg="http://www.w3.org/2000/svg"
   xmlns:rdf="http://www.w3.org/1999/02/22-rdf-syntax-ns#"
   xmlns:cc="http://creativecommons.org/ns#"
   xmlns:dc="http://purl.org/dc/elements/1.1/">
  <defs
     id="defs917">
    <rect
       x="18.951031"
       y="222.1482"
       width="539.05155"
       height="113.70619"
       id="rect168" />
    <rect
       x="56.853093"
       y="229.51804"
       width="481.14562"
       height="141.0799"
       id="rect531" />
  </defs>
  <sodipodi:namedview
     id="base"
     pagecolor="#ffffff"
     bordercolor="#666666"
     borderopacity="1.0"
     inkscape:pageopacity="0.0"
     inkscape:pageshadow="2"
     inkscape:zoom="1.3432432"
     inkscape:cx="299.6479"
     inkscape:cy="179.4165"
     inkscape:document-units="mm"
     inkscape:current-layer="layer1"
     inkscape:document-rotation="0"
     showgrid="false"
     inkscape:window-width="1600"
     inkscape:window-height="822"
     inkscape:window-x="0"
     inkscape:window-y="42"
     inkscape:window-maximized="1"
     inkscape:showpageshadow="2"
     inkscape:pagecheckerboard="0"
     inkscape:deskcolor="#d1d1d1"
     showguides="true" />
  <metadata
     id="metadata920">
    <rdf:RDF>
      <cc:Work
         rdf:about="">
        <dc:format>image/svg+xml</dc:format>
        <dc:type
           rdf:resource="http://purl.org/dc/dcmitype/StillImage" />
      </cc:Work>
    </rdf:RDF>
  </metadata>
  <g
     inkscape:label="Capa 1"
     inkscape:groupmode="layer"
     id="layer1"
     transform="translate(-19.621725,-76.645009)">
    <g
       aria-label="Vasak"
       id="text174"
       style="font-size:45.8611px;font-family:Chailce-Noggin;-inkscape-font-specification:Chailce-Noggin;fill:#f6bd2e;stroke-width:0.264583">
      <path
         d="m 32.393995,151.62059 -9.355664,-43.56804 q 0.596195,-0.18345 2.201333,-0.18345 1.651,0 7.429498,0.64206 l 7.337776,33.52446 q 0.04586,-0.18344 2.52236,-8.11741 2.522361,-7.93397 4.99886,-15.95967 2.4765,-8.02569 2.797527,-9.40152 0.871361,-0.27517 3.898194,-0.27517 h 1.69686 l 4.356805,0.36689 q -0.596194,2.38478 -13.483163,43.3846 -1.375833,0.0917 -3.76061,0.0917 -0.963084,0 -4.265083,-0.0917 -2.889249,-0.0917 -4.356804,-0.22931 -1.421694,-0.13758 -2.017889,-0.18344 z"
         id="path164" />
      <path
         d="m 64.405015,135.59744 q 0,0 4.723694,-0.0917 0.275166,0.13758 0.963083,2.20133 0.687916,2.06375 0.779638,3.57716 -0.321027,0.0917 -1.650999,0.0917 -1.605139,0 -7.108471,0.18344 0,0 -2.751666,6.32883 -2.10961,0.0917 -2.247193,0.0917 h -1.054806 q -3.301999,-0.13758 -3.301999,-0.13758 1.972027,-6.0078 4.494388,-11.7863 7.383637,-17.06033 7.383637,-17.06033 1.972027,-0.18344 2.751666,-0.18344 l 4.677832,0.55033 q 1.008944,5.31989 4.58611,13.4373 1.605138,3.62303 3.164416,7.38364 1.559277,3.71475 2.338916,5.64091 l 0.779638,1.92617 q -0.458611,0.0917 -2.843388,0.0917 h -4.081638 q -0.183444,-0.64205 -2.201332,-5.73264 -1.972028,-5.09058 -3.898194,-9.86013 l -1.880305,-4.81542 q -1.467555,2.06375 -3.439582,7.65881 0,0.0917 -0.09172,0.27516 -0.09172,0.13759 -0.09172,0.22931 z"
         id="path166" />
      <path
         d="m 94.581624,129.95652 q 10.639776,0 10.639776,9.53911 0,2.56822 -1.42169,4.35681 -1.37584,1.78858 -3.62303,2.52236 -2.247196,0.77963 -4.127501,1.0548 -1.834444,0.27517 -3.76061,0.27517 h -0.733777 q -1.559278,-0.0459 -3.256138,-0.45861 -1.696861,-0.36689 -2.614083,-0.77964 l -0.917222,-0.36689 q -0.183444,-1.14653 -0.183444,-3.76061 v -2.75167 q 2.843388,1.69686 7.337775,1.78859 h 0.8255 q 3.072694,0 4.356805,-0.50448 1.28411,-0.55033 1.28411,-1.78858 0,-0.73378 0,-0.96308 0,-0.22931 -0.229305,-0.91722 -0.229306,-0.73378 -0.642055,-1.05481 -0.41275,-0.32103 -1.375833,-0.64205 -0.917222,-0.36689 -2.247194,-0.41275 -2.017889,-0.0917 -3.118555,-0.18345 -1.100666,-0.0917 -2.705805,-0.55033 -1.605138,-0.50447 -2.476499,-1.32997 -0.8255,-0.8255 -1.467555,-2.38478 -0.642056,-1.60514 -0.642056,-3.89819 0,-8.0257 10.548053,-8.0257 h 0.871361 q 1.559277,0.0459 3.439582,0.5962 1.926166,0.50447 3.072696,1.00894 l 1.14653,0.55034 q 0.18344,1.14652 0.18344,3.76061 v 2.75166 q -2.797527,-1.28411 -5.961943,-2.24719 -1.559277,-0.45861 -3.210277,-0.45861 -3.623027,0 -3.623027,2.29305 0,1.74272 1.23825,2.38478 1.23825,0.59619 3.393721,0.59619 z"
         id="path168" />
      <path
         d="m 118.2001,135.59744 q 0,0 4.7237,-0.0917 0.27516,0.13758 0.96308,2.20133 0.68792,2.06375 0.77964,3.57716 -0.32103,0.0917 -1.651,0.0917 -1.60514,0 -7.10847,0.18344 0,0 -2.75167,6.32883 -2.10961,0.0917 -2.24719,0.0917 h -1.05481 q -3.302,-0.13758 -3.302,-0.13758 1.97203,-6.0078 4.49439,-11.7863 7.38364,-17.06033 7.38364,-17.06033 1.97203,-0.18344 2.75166,-0.18344 l 4.67784,0.55033 q 1.00894,5.31989 4.58611,13.4373 1.60514,3.62303 3.16441,7.38364 1.55928,3.71475 2.33892,5.64091 l 0.77964,1.92617 q -0.45861,0.0917 -2.84339,0.0917 h -4.08164 q -0.18344,-0.64205 -2.20133,-5.73264 -1.97203,-5.09058 -3.89819,-9.86013 l -1.88031,-4.81542 q -1.46756,2.06375 -3.43958,7.65881 0,0.0917 -0.0917,0.27516 -0.0917,0.13759 -0.0917,0.22931 z"
         id="path170" />
      <path
         d="m 146.54231,137.56947 q -0.27517,9.81427 -0.27517,9.81427 -0.2293,0 -0.8255,0.0459 -0.55033,0.0459 -1.74272,0.0917 H 139.709 q -0.0459,-1.92616 -0.13758,-8.94291 -0.0459,-7.01675 -0.0917,-13.29972 -0.0459,-6.32883 -0.0459,-6.604 l 3.07269,-0.0459 q 0,0 0.96308,0 l 3.16442,0.13758 q 0.0459,2.79753 0.0459,7.10847 v 5.09059 l 7.56708,-12.10733 q 2.84339,-0.18345 5.41161,-0.18345 1.14653,0 1.88031,0.0459 0.73378,0.0459 0.91722,0.0917 l 0.13758,0.0459 q -4.08163,6.78744 -9.3098,14.67555 -0.27517,0.45861 -0.41275,0.64205 1.00894,1.46756 3.302,4.86128 2.29305,3.39372 4.08164,6.05367 1.83444,2.65994 1.83444,2.65994 -0.45861,0.0917 -4.26508,-0.18345 -3.80647,-0.27516 -4.21922,-0.36688 -0.41275,-0.55034 -1.78859,-2.43064 -1.32997,-1.83445 -2.7058,-3.66889 -1.37583,-1.88031 -2.56822,-3.5313 z"
         id="path172" />
    </g>
    <path
       d="m 177.42721,149.09033 c 1.21709,-1.45521 4.23333,-4.97417 6.69396,-7.80521 2.48708,-2.83104 4.68312,-5.37104 4.89479,-5.60917 0.34396,-0.39687 0.26458,-0.52916 -0.87312,-1.19062 -5.74146,-3.36021 -10.98021,-8.70479 -15.05479,-15.29292 -2.2225,-3.62479 -1.98438,-3.41312 -4.28625,-3.94229 -5.10646,-1.19062 -10.08063,-3.4925 -13.99646,-6.42938 -2.06375,-1.56104 -2.48708,-2.01083 -3.22792,-3.51895 -1.56104,-3.14854 -5.10645,-14.79021 -5.10645,-16.721669 0,-0.555624 0.26458,-0.582083 -3.91584,0.423334 -2.83104,0.687916 -3.38666,0.978958 -6.00604,3.174999 -4.04812,3.413125 -6.21771,5.55625 -8.59895,8.493126 l -2.56646,3.20146 -2.61938,-0.21167 c -4.73604,-0.37042 -15.26645,-2.19604 -35.030827,-6.0325 -33.04645,-6.429374 -44.55582,-8.016874 -54.371865,-7.540624 -3.307291,0.15875 -13.652498,1.11125 -13.811248,1.27 -0.02646,0.05292 1.561042,0.238125 3.571875,0.396875 17.806456,1.534583 46.143328,6.561666 69.135618,12.250209 10.794997,2.67229 24.712077,6.69396 34.739787,10.08063 5.45041,1.82562 5.52979,1.85208 6.40291,1.42875 0.87313,-0.39688 0.89958,-0.4498 0.89958,-2.14313 0,-2.24896 0.42334,-6.29709 0.9525,-8.99584 0.87313,-4.392078 2.54,-8.546036 4.78896,-11.932702 1.00542,-1.534584 1.27,-1.693333 1.48167,-0.9525 1.74625,6.111874 3.51896,11.879792 3.99521,13.017502 0.71437,1.79916 6.37645,8.44021 8.28145,9.71021 0.71438,0.47625 3.22792,1.69333 5.63563,2.72521 5.37104,2.27541 6.61458,3.09562 8.94291,5.87374 2.98979,3.57188 5.715,6.00604 12.27667,10.90084 l 3.06916,2.30187 -1.74625,2.83104 c -2.48708,4.07458 -4.20687,7.03792 -5.34458,9.33979 -0.92604,1.82563 -1.13771,2.06375 -2.30187,2.56646 -0.79375,0.34396 -1.11125,0.60854 -0.87313,0.68792 0.21167,0.0529 0.58209,0.1852 0.79375,0.26458 0.74084,0.23812 0.97896,0.0265 3.175,-2.61937 z"
       id="path1545"
       style="fill:#f6bd2e;fill-opacity:1;stroke:none;stroke-width:0.3;stroke-linecap:round;stroke-linejoin:bevel;stroke-miterlimit:4;stroke-dasharray:none;stroke-opacity:1;paint-order:normal"
       sodipodi:nodetypes="ccccccccsccccccccccccsccscscccccccccc" />
  </g>
</svg>
