<?xml version="1.0" standalone="no"?>
<!DOCTYPE svg PUBLIC "-//W3C//DTD SVG 20010904//EN"
 "http://www.w3.org/TR/2001/REC-SVG-20010904/DTD/svg10.dtd">
<svg version="1.0" xmlns="http://www.w3.org/2000/svg"
 width="724.000000pt" height="724.000000pt" viewBox="0 0 724.000000 724.000000"
 preserveAspectRatio="xMidYMid meet">
<metadata>
Created by potrace 1.14, written by Peter Selinger 2001-2017
</metadata>
<g transform="translate(0.000000,724.000000) scale(0.100000,-0.100000)"
fill="#000000" stroke="none">
<path d="M3337 7190 c-688 -62 -1301 -286 -1841 -673 -684 -490 -1177 -1208
-1381 -2012 -84 -329 -109 -537 -109 -885 0 -348 25 -556 109 -885 246 -972
913 -1809 1812 -2277 397 -207 782 -327 1245 -390 236 -32 661 -32 898 0 822
111 1539 458 2105 1018 832 824 1205 1972 1014 3124 -85 512 -302 1039 -602
1460 -595 834 -1480 1363 -2507 1500 -177 24 -581 34 -743 20z m1937 -2277
c35 -145 136 -454 169 -519 46 -90 169 -186 352 -274 93 -45 245 -98 325 -115
49 -10 62 -24 154 -165 153 -232 316 -403 501 -521 46 -30 84 -59 85 -64 0 -6
-26 -39 -57 -75 -31 -36 -148 -172 -260 -303 -160 -186 -209 -237 -228 -237
-36 0 -38 16 -4 30 36 15 66 53 109 140 18 36 79 143 137 238 57 96 103 178
101 182 -2 5 -64 54 -138 110 -192 146 -291 231 -384 334 -148 165 -174 184
-361 266 -219 96 -248 114 -349 221 -51 54 -118 133 -148 176 -51 71 -62 95
-112 258 -30 99 -65 215 -77 258 -12 42 -27 77 -33 77 -27 -1 -119 -164 -169
-300 -53 -143 -87 -338 -100 -570 -2 -42 -4 -45 -37 -54 -30 -7 -69 3 -267 68
-433 141 -795 246 -1208 351 -830 210 -1891 403 -2588 471 -99 10 -171 21
-160 24 26 10 277 31 449 39 381 16 795 -38 1909 -253 594 -114 942 -179 1165
-215 111 -19 365 -51 397 -51 7 0 48 44 91 98 94 116 165 189 287 296 135 118
168 137 280 168 150 40 136 47 169 -89z m-4370 -641 l50 -7 136 -622 c74 -342
138 -625 142 -628 3 -4 13 15 21 42 47 144 274 874 320 1028 l54 180 176 0
c96 0 178 -3 182 -7 4 -4 -9 -62 -30 -129 -29 -96 -410 -1321 -456 -1466 -9
-28 -16 -33 -54 -39 -65 -9 -487 13 -495 26 -4 6 -23 89 -43 183 -20 95 -97
456 -172 802 -74 347 -135 636 -135 644 0 12 21 13 128 6 70 -4 149 -10 176
-13z m1469 -408 c62 -6 68 -9 73 -33 27 -126 82 -277 205 -566 54 -126 120
-284 147 -350 l50 -120 -46 -7 c-26 -3 -82 -7 -125 -7 -71 -1 -78 1 -87 22 -5
12 -73 184 -151 382 -77 198 -143 362 -145 364 -9 9 -35 -38 -79 -140 -25 -59
-48 -121 -51 -138 l-6 -31 90 0 c88 0 90 0 101 -27 21 -52 41 -128 41 -155 l0
-28 -104 0 c-56 0 -130 -3 -163 -6 l-59 -6 -51 -117 -50 -116 -122 -3 -123 -3
7 23 c27 89 144 382 260 648 75 173 146 338 158 367 20 47 25 52 57 56 19 3
51 3 70 1 19 -2 65 -6 103 -10z m1100 -17 c130 -42 127 -38 127 -171 l0 -113
-101 38 c-130 49 -193 63 -268 57 -79 -6 -111 -32 -111 -93 0 -81 30 -98 210
-114 142 -13 196 -31 259 -87 63 -57 93 -124 99 -227 6 -99 -10 -155 -61 -213
-47 -53 -88 -76 -194 -106 -146 -41 -406 -26 -490 28 -22 14 -23 21 -23 129
l0 116 33 -17 c121 -63 402 -71 464 -13 17 17 23 33 23 66 0 99 -49 130 -225
144 -189 14 -260 49 -306 151 -20 44 -24 69 -24 153 0 83 4 107 21 140 64 118
183 168 384 161 76 -3 126 -11 183 -29z m946 15 l53 -7 24 -93 c28 -108 74
-233 146 -400 106 -245 237 -566 234 -570 -3 -2 -59 -4 -126 -5 l-121 -2 -45
115 c-174 447 -256 650 -263 650 -15 0 -131 -264 -131 -297 0 -9 28 -13 92
-15 l91 -3 22 -65 c12 -36 25 -82 29 -102 l7 -38 -109 0 c-60 0 -136 -3 -168
-6 l-59 -6 -50 -117 -50 -116 -109 -3 c-61 -1 -115 -1 -122 2 -22 8 59 219
294 761 l138 320 40 6 c38 6 73 4 183 -9z m843 -213 l3 -232 140 227 c90 144
147 228 160 231 11 3 82 4 157 3 l138 -3 -103 -165 c-57 -91 -138 -218 -180
-283 -42 -65 -77 -123 -77 -128 0 -6 74 -120 165 -254 91 -134 165 -247 165
-251 0 -7 -251 5 -285 15 -15 4 -69 68 -150 179 -70 94 -131 172 -136 172 -5
0 -9 -72 -9 -164 0 -90 -3 -171 -6 -180 -5 -13 -26 -16 -125 -16 l-119 0 0
268 c0 148 -3 391 -7 540 l-6 272 136 0 137 0 2 -231z m-3173 -964 c80 -41 80
-189 1 -230 -30 -15 -30 -16 -15 -51 21 -50 20 -54 -19 -54 -30 0 -35 4 -51
46 -9 25 -23 48 -31 51 -8 3 -14 19 -14 37 0 31 1 31 40 28 48 -5 80 18 80 56
0 57 -51 77 -116 46 -40 -19 -43 -29 -47 -154 l-2 -95 -32 -3 -33 -3 0 159 0
160 32 6 c20 4 34 2 39 -6 5 -8 16 -7 41 5 41 21 90 21 127 2z m1030 -11 c36
-30 56 -88 47 -137 -10 -52 -65 -97 -119 -97 -52 0 -63 7 -71 46 l-7 32 46 -5
c35 -4 50 -1 65 12 26 23 25 60 0 85 -25 25 -54 25 -100 2 -31 -15 -36 -23
-42 -67 -3 -27 -7 -80 -7 -117 l-1 -68 -30 0 -30 0 0 159 0 159 32 6 c19 4 34
2 39 -5 4 -8 15 -6 35 5 46 24 107 20 143 -10z m-1364 2 c22 -10 35 -22 35
-34 0 -29 -9 -32 -47 -16 -75 32 -143 -19 -143 -106 0 -84 70 -138 143 -111
21 8 27 17 27 40 0 28 -3 30 -42 33 -37 3 -44 7 -46 27 -5 32 6 37 77 33 l61
-4 0 -84 c0 -83 -1 -85 -27 -96 -83 -33 -190 -2 -231 68 -30 51 -28 158 4 201
42 57 120 77 189 49z m673 -13 c47 -35 67 -81 67 -154 0 -56 -4 -71 -27 -101
-73 -95 -220 -81 -268 25 -45 97 -12 203 75 243 40 19 119 12 153 -13z m159
19 c7 -4 12 -49 15 -120 3 -105 5 -115 27 -133 30 -24 62 -24 92 0 22 18 24
28 27 135 l4 116 41 0 40 0 -5 -124 c-4 -73 -11 -135 -19 -152 -39 -82 -216
-85 -259 -4 -16 29 -28 153 -22 228 4 55 7 62 26 62 11 0 26 -4 33 -8z"/>
<path d="M2293 2620 c-40 -24 -53 -48 -53 -100 0 -87 59 -135 135 -110 43 14
65 52 65 112 0 50 -19 82 -60 103 -38 19 -49 19 -87 -5z"/>
</g>
</svg>
